<svg xmlns="http://www.w3.org/2000/svg" width="192" height="192" fill="none" viewBox="0 0 192 192">
  <path fill="#FFF308" fill-opacity=".2" fill-rule="evenodd" d="M96 165.6c38.439 0 69.6-31.161 69.6-69.6 0-38.439-31.161-69.6-69.6-69.6-38.439 0-69.6 31.161-69.6 69.6 0 38.439 31.161 69.6 69.6 69.6zM168 96c0 39.765-32.235 72-72 72-39.764 0-72-32.235-72-72 0-39.764 32.236-72 72-72 39.765 0 72 32.236 72 72z" clip-rule="evenodd"/>
  <path fill="#FFF308" fill-opacity=".6" fill-rule="evenodd" d="M95.6 156c33.358 0 60.4-27.042 60.4-60.4s-27.042-60.4-60.4-60.4-60.4 27.042-60.4 60.4S62.242 156 95.6 156zm63.6-60.4c0 35.125-28.475 63.6-63.6 63.6S32 130.725 32 95.6 60.475 32 95.6 32s63.6 28.475 63.6 63.6z" clip-rule="evenodd"/>
  <path fill="#FFEC65" fill-rule="evenodd" d="M95.6 149.6c29.823 0 54-24.177 54-54s-24.177-54-54-54-54 24.177-54 54 24.177 54 54 54z" clip-rule="evenodd"/>
</svg>
