<svg xmlns="http://www.w3.org/2000/svg" width="192" height="192" fill="none" viewBox="0 0 192 192">
  <path fill="#fff" d="M155.975 78.079c.017-.5.025-1.003.025-1.508C156 51.955 136.122 32 111.6 32c-19.452 0-35.982 12.557-41.986 30.038A30.969 30.969 0 0055.2 58.502c-17.231 0-31.2 14.023-31.2 31.32 0 17.298 13.969 31.321 31.2 31.321h90c12.592 0 22.8-10.247 22.8-22.888a22.896 22.896 0 00-12.025-20.176z"/>
  <path fill="#000" fill-opacity=".4" fill-rule="evenodd" d="M45.6 132a4 4 0 014-4h92a4 4 0 010 8h-92a4 4 0 01-4-4zm0 16a4 4 0 014-4h92a4 4 0 010 8h-92a4 4 0 01-4-4zm4 12a4 4 0 000 8h92a4 4 0 000-8h-92z" clip-rule="evenodd"/>
</svg>
