<svg xmlns="http://www.w3.org/2000/svg" width="192" height="192" fill="none" viewBox="0 0 192 192">
  <path fill="#fff" fill-rule="evenodd" d="M156 76.571c0 .505-.008 1.008-.025 1.508A22.896 22.896 0 01168 98.255c0 12.641-10.208 22.888-22.8 22.888h-15.168a6.252 6.252 0 00-2.777-3.322l-1.311-.755a6.277 6.277 0 00-3.13-5.948 6.317 6.317 0 00-6.772.3l-5.432-3.018s4.398-3.06 5.487-3.779a6.312 6.312 0 006.717.261 6.28 6.28 0 003.122-6.029c1.279-.75 1.319-.674 1.319-.674a6.275 6.275 0 002.3-8.579 6.308 6.308 0 00-8.6-2.303s-.141.109-1.363.719a6.314 6.314 0 00-6.678-.235 6.282 6.282 0 00-3.127 5.974c-1.12.669-5.887 3.562-5.887 3.562s.012-6.162.066-7.008a6.28 6.28 0 003.534-5.646 6.285 6.285 0 00-3.615-5.683c.031-1.102.015-1.504.015-1.504 0-3.462-2.824-6.276-6.3-6.276-3.475 0-6.3 2.808-6.3 6.276 0 0 .016.133.006 1.507a6.281 6.281 0 00-3.606 5.68 6.285 6.285 0 003.636 5.694c-.059 1.65-.036 6.96-.036 6.96s-4.699-2.766-5.883-3.604a6.277 6.277 0 00-3.131-5.932 6.316 6.316 0 00-6.703.253c-1.223-.616-1.338-.737-1.338-.737a6.31 6.31 0 00-8.6 2.303 6.272 6.272 0 002.3 8.58s.286-.002 1.314.715a6.277 6.277 0 003.127 5.987 6.316 6.316 0 006.747-.282c.647.521 6.284 3.8 6.284 3.8l-6.147 3.097a6.314 6.314 0 00-6.884-.379 6.28 6.28 0 00-3.13 5.948l-1.31.755a6.247 6.247 0 00-2.777 3.322H55.2c-17.231 0-31.2-14.023-31.2-31.32 0-17.298 13.969-31.321 31.2-31.321 5.2 0 10.103 1.277 14.414 3.535C75.618 44.558 92.148 32 111.6 32c24.522 0 44.4 19.955 44.4 44.571zm-68.804 44.572H91.3v-2.46l-4.104 2.46zm16.672 0h3.958l-3.967-2.284.009 2.284z" clip-rule="evenodd"/>
  <path fill="#fff" fill-rule="evenodd" d="M94.985 127.895V87.934h-.87a2.614 2.614 0 01-2.617-2.606c0-1.44 1.17-2.607 2.618-2.607h.869v-4.35a2.61 2.61 0 012.615-2.6 2.612 2.612 0 012.616 2.6v4.35h.868a2.615 2.615 0 012.619 2.606 2.612 2.612 0 01-2.619 2.607h-.868v39.961h.868a2.615 2.615 0 012.619 2.606 2.611 2.611 0 01-2.619 2.606h-.868v4.351a2.61 2.61 0 01-2.616 2.599 2.611 2.611 0 01-2.615-2.599v-4.351h-.87a2.614 2.614 0 01-2.617-2.606 2.611 2.611 0 012.618-2.606h.869z" clip-rule="evenodd"/>
  <path fill="#fff" fill-rule="evenodd" d="M81.543 95.667l34.73 19.981.434-.75a2.624 2.624 0 013.574-.957 2.602 2.602 0 01.956 3.563l-.434.75 3.78 2.175a2.6 2.6 0 01.952 3.557 2.622 2.622 0 01-3.567.957l-3.781-2.175-.434.75a2.624 2.624 0 01-3.574.956 2.6 2.6 0 01-.956-3.562l.434-.75-34.73-19.981-.434.75a2.624 2.624 0 01-3.574.956 2.601 2.601 0 01-.956-3.562l.435-.75-3.781-2.175a2.6 2.6 0 01-.952-3.557 2.622 2.622 0 013.567-.957l3.781 2.175.434-.75a2.624 2.624 0 013.575-.957c1.25.72 1.68 2.314.955 3.563l-.434.75z" clip-rule="evenodd"/>
  <path fill="#fff" fill-rule="evenodd" d="M116.273 100.181l-34.73 19.981.434.75a2.604 2.604 0 01-.956 3.562 2.62 2.62 0 01-3.574-.956l-.434-.75-3.78 2.175a2.619 2.619 0 01-3.568-.957 2.602 2.602 0 01.952-3.557l3.78-2.175-.434-.75a2.605 2.605 0 01.956-3.563 2.621 2.621 0 013.574.957l.435.75 34.729-19.981-.434-.75a2.604 2.604 0 01.956-3.562 2.62 2.62 0 013.574.956l.434.75 3.781-2.175a2.619 2.619 0 013.567.957 2.603 2.603 0 01-.952 3.557l-3.78 2.175.434.75a2.604 2.604 0 01-.956 3.562 2.62 2.62 0 01-3.574-.956l-.434-.75z" clip-rule="evenodd"/>
  <path fill="#B4F5F2" fill-rule="evenodd" d="M56.216 133.368a4 4 0 117.608 2.472l-7.042 21.674a4 4 0 11-7.608-2.472l7.042-21.674zm21.146-2.568a4 4 0 00-5.04 2.568l-13.63 41.946a4 4 0 007.609 2.473l13.63-41.947a4 4 0 00-2.57-5.04zm48.144 0a4 4 0 00-5.041 2.568l-13.629 41.946a4 4 0 007.609 2.473l13.629-41.947a4 4 0 00-2.568-5.04zm-40.647 13.55a4 4 0 117.609 2.472L85.7 167.65a4 4 0 11-7.608-2.472l6.767-20.828zm56.553-13.55a4 4 0 00-5.04 2.568l-10.336 31.81a4 4 0 107.609 2.472l10.335-31.81a4 4 0 00-2.568-5.04zm-34.611 8.53a4 4 0 00-5.04 2.568l-4.27 13.144a4 4 0 007.608 2.472l4.27-13.143a4 4 0 00-2.568-5.041z" clip-rule="evenodd"/>
</svg>
