<svg xmlns="http://www.w3.org/2000/svg" width="192" height="192" fill="none" viewBox="0 0 192 192">
  <path fill="#fff" fill-rule="evenodd" d="M92.207 75.226L78.291 61.823c-1.635-1.575-1.65-4.115-.008-5.697 1.63-1.57 4.278-1.568 5.915.009l8.01 7.713V39.917c0-2.229 1.853-4.035 4.176-4.035 2.307 0 4.177 1.782 4.177 4.035v24.06l8.142-7.842c1.636-1.576 4.273-1.59 5.916-.009 1.631 1.571 1.628 4.12-.009 5.697l-14.049 13.531v61.061l14.095 13.575c1.637 1.577 1.64 4.126.009 5.697-1.643 1.582-4.28 1.567-5.916-.008l-8.188-7.887v24.173c0 2.228-1.854 4.035-4.177 4.035-2.307 0-4.177-1.782-4.177-4.035v-24.157l-8.172 7.871c-1.637 1.577-4.284 1.579-5.915.008-1.643-1.582-1.627-4.122.008-5.697l14.08-13.559V75.226z" clip-rule="evenodd"/>
  <path fill="#fff" fill-rule="evenodd" d="M124.512 117.417l18.474-5.361c2.172-.63 4.368.626 4.913 2.841.541 2.199-.778 4.492-2.952 5.123l-10.633 3.086 18.849 12.08c1.921 1.114 2.554 3.624 1.398 5.638-1.149 1.999-3.615 2.729-5.556 1.602l-18.961-12.144 2.703 10.979c.543 2.206-.757 4.499-2.938 5.132-2.165.628-4.361-.649-4.904-2.857l-4.663-18.943-52.606-30.53-18.713 5.43c-2.174.631-4.372-.642-4.913-2.841-.545-2.215.78-4.493 2.952-5.123l10.871-3.155-19.057-12.2c-1.92-1.115-2.554-3.625-1.397-5.639 1.148-1.999 3.615-2.729 5.556-1.602l19.043 12.193-2.712-11.02c-.543-2.207.772-4.502 2.938-5.13 2.18-.633 4.36.65 4.904 2.855l4.673 18.983 52.731 30.603z" clip-rule="evenodd"/>
  <path fill="#fff" fill-rule="evenodd" d="M71.59 124.719l-4.62 18.764c-.543 2.205-2.723 3.488-4.904 2.856-2.165-.629-3.48-2.924-2.937-5.132l2.658-10.799-18.85 12.08c-1.92 1.115-4.4.411-5.556-1.602-1.148-2-.543-4.512 1.398-5.638l18.96-12.145-10.81-3.137c-2.172-.63-3.498-2.908-2.952-5.123.541-2.199 2.739-3.472 4.912-2.841l18.652 5.412 52.607-30.53 4.678-19.005c.543-2.208 2.739-3.484 4.904-2.856 2.181.633 3.481 2.926 2.938 5.132l-2.718 11.04 19.058-12.2c1.92-1.115 4.399-.411 5.555 1.602 1.149 2 .544 4.512-1.397 5.638l-19.044 12.193 10.85 3.148c2.173.631 3.493 2.924 2.952 5.124-.545 2.214-2.741 3.471-4.913 2.84l-18.691-5.423-52.73 30.602z" clip-rule="evenodd"/>
  <path fill="#fff" d="M87.122 75.645L75.57 64.581c-3.271-3.133-3.286-8.269-.01-11.407 3.174-3.039 8.25-3.033 11.425.008l1.427 1.2V39.736c0-4.451 3.673-7.99 8.157-7.99 4.477 0 8.158 3.522 8.158 7.99v14.646l1.561-1.2c3.177-3.042 8.243-3.055 11.425-.008a7.86 7.86 0 01-.009 11.407l-11.554 11.064h13.154l2.171-8.77a7.878 7.878 0 019.869-5.705c4.235 1.222 6.755 5.612 5.698 9.881l-.581 2.294 6.668-4.62a15.05 15.05 0 002.548-8.394c0-5.84-3.328-10.917-8.222-13.5.011-.335.017-.67.017-1.009 0-16.47-13.592-29.822-30.359-29.822-13.3 0-24.604 8.402-28.709 20.098a21.55 21.55 0 00-9.855-2.366c-11.782 0-21.334 9.383-21.334 20.957 0 6.645 3.15 12.569 8.062 16.408l-.023-.093c-1.057-4.268 1.475-8.664 5.698-9.882a7.87 7.87 0 019.869 5.705l2.183 8.818h14.12z"/>
</svg>
