<svg xmlns="http://www.w3.org/2000/svg" width="192" height="192" fill="none" viewBox="0 0 192 192">
  <path fill="#FFF308" fill-opacity=".2" fill-rule="evenodd" d="M96 165.6c38.439 0 69.6-31.161 69.6-69.6 0-38.439-31.161-69.6-69.6-69.6-38.439 0-69.6 31.161-69.6 69.6 0 38.439 31.161 69.6 69.6 69.6zM168 96c0 39.765-32.235 72-72 72-39.764 0-72-32.235-72-72 0-39.764 32.236-72 72-72 39.765 0 72 32.236 72 72z" clip-rule="evenodd"/>
  <path fill="#FFF308" fill-opacity=".6" fill-rule="evenodd" d="M95.6 156c33.358 0 60.4-27.042 60.4-60.4s-27.042-60.4-60.4-60.4-60.4 27.042-60.4 60.4S62.242 156 95.6 156zm63.6-60.4c0 35.125-28.475 63.6-63.6 63.6S32 130.725 32 95.6 60.475 32 95.6 32s63.6 28.475 63.6 63.6z" clip-rule="evenodd"/>
  <path fill="#FFEC65" fill-rule="evenodd" d="M95.6 149.6c29.823 0 54-24.177 54-54s-24.177-54-54-54-54 24.177-54 54 24.177 54 54 54z" clip-rule="evenodd"/>
  <g>
    <path fill="#fff" d="M167.315 73.082c.012-.359.018-.72.018-1.082 0-17.673-14.356-32-32.066-32-14.049 0-25.988 9.016-30.323 21.565a22.476 22.476 0 00-10.41-2.538C82.087 59.027 72 69.095 72 81.513 72 93.933 82.088 104 94.533 104h65C168.628 104 176 96.643 176 87.567c0-6.266-3.515-11.713-8.685-14.485z"/>
  </g>
  <g>
    <path fill="#fff" d="M74.656 130.08c.007-.223.01-.446.01-.67 0-10.941-8.834-19.81-19.733-19.81-8.645 0-15.992 5.581-18.66 13.35a13.762 13.762 0 00-6.406-1.571c-7.659 0-13.867 6.232-13.867 13.92s6.208 13.92 13.867 13.92h40c5.596 0 10.133-4.554 10.133-10.172 0-3.88-2.163-7.252-5.344-8.967z"/>
  </g>
</svg>
