<svg xmlns="http://www.w3.org/2000/svg" width="192" height="192" fill="none" viewBox="0 0 192 192">
  <path fill="#fff" d="M155.925 47.714c.005-.17.008-.342.008-.514 0-8.395-6.736-15.2-15.046-15.2-6.592 0-12.194 4.282-14.229 10.243a10.444 10.444 0 00-4.885-1.205c-5.839 0-10.573 4.782-10.573 10.68 0 5.9 4.734 10.682 10.573 10.682h30.5c4.268 0 7.727-3.495 7.727-7.805a7.815 7.815 0 00-4.075-6.88z"/>
  <path fill="#303030" fill-opacity=".7" d="M145.105 139.966c1.987-2.047.067-5.299-2.779-5.079a67.634 67.634 0 01-5.233.202c-36.97 0-66.94-29.947-66.94-66.887 0-11.362 2.836-22.062 7.837-31.433 1.346-2.52-.872-5.582-3.545-4.57C49.522 41.628 31.8 65.73 31.8 93.975 31.8 130.44 61.336 160 97.771 160c18.568 0 35.345-7.677 47.334-20.034z"/>
  <path fill="#fff" d="M74.656 130.08c.007-.223.01-.446.01-.67 0-10.941-8.834-19.81-19.733-19.81-8.645 0-15.992 5.581-18.66 13.35a13.762 13.762 0 00-6.406-1.571c-7.659 0-13.867 6.232-13.867 13.92s6.208 13.92 13.867 13.92h40c5.596 0 10.133-4.554 10.133-10.172 0-3.88-2.163-7.252-5.344-8.967z"/>
</svg>
