<svg xmlns="http://www.w3.org/2000/svg" width="192" height="192" fill="none" viewBox="0 0 192 192">
  <path fill="#fff" d="M155.975 78.507c.017-.506.025-1.013.025-1.522 0-24.853-19.878-45-44.4-45-19.452 0-35.982 12.678-41.986 30.326A30.733 30.733 0 0055.2 58.74C37.969 58.741 24 72.9 24 90.363s13.969 31.622 31.2 31.622h90c12.592 0 22.8-10.346 22.8-23.109 0-8.812-4.867-16.472-12.025-20.37z"/>
  <path fill="#B4F5F2" fill-rule="evenodd" d="M81.256 130.8a4 4 0 00-5.04 2.568l-7.042 21.674a4 4 0 107.608 2.472l7.042-21.674a4 4 0 00-2.568-5.04zm11.066 2.568a4 4 0 117.608 2.472L86.3 177.786a4.001 4.001 0 01-7.608-2.472l13.63-41.946zm16.105 0a4 4 0 017.609 2.472L105.7 167.65a4 4 0 11-7.608-2.472l10.335-31.81z" clip-rule="evenodd"/>
</svg>
