<svg xmlns="http://www.w3.org/2000/svg" width="192" height="192" fill="none" viewBox="0 0 192 192">
  <path fill="#fff" fill-rule="evenodd" d="M156 76.571c0 .505-.008 1.008-.025 1.508A22.896 22.896 0 01168 98.255c0 12.641-10.208 22.888-22.8 22.888h-34.508c.607-.422 4.404-3.061 5.405-3.722a6.312 6.312 0 006.717.261 6.28 6.28 0 003.122-6.029c1.279-.75 1.319-.674 1.319-.674a6.275 6.275 0 002.3-8.579 6.308 6.308 0 00-8.6-2.303s-.141.109-1.363.719a6.314 6.314 0 00-6.678-.235 6.283 6.283 0 00-3.127 5.974c-1.12.669-5.887 3.562-5.887 3.562s.012-6.162.066-7.008a6.28 6.28 0 003.534-5.646 6.285 6.285 0 00-3.615-5.683c.031-1.102.015-1.504.015-1.504 0-3.462-2.824-6.276-6.3-6.276-3.475 0-6.3 2.808-6.3 6.276 0 0 .016.133.006 1.507a6.281 6.281 0 00-3.606 5.68 6.285 6.285 0 003.636 5.694c-.059 1.65-.036 6.96-.036 6.96s-4.699-2.767-5.883-3.604a6.278 6.278 0 00-3.131-5.932 6.316 6.316 0 00-6.703.253c-1.223-.616-1.338-.737-1.338-.737a6.31 6.31 0 00-8.6 2.303 6.272 6.272 0 002.3 8.579s.286 0 1.314.716a6.277 6.277 0 003.127 5.987 6.316 6.316 0 006.747-.282c.596.48 5.434 3.305 6.186 3.743H55.2c-17.231 0-31.2-14.023-31.2-31.32 0-17.298 13.969-31.321 31.2-31.321 5.2 0 10.103 1.277 14.414 3.535C75.618 44.558 92.148 32 111.6 32c24.522 0 44.4 19.955 44.4 44.571z" clip-rule="evenodd"/>
  <path fill="#fff" fill-rule="evenodd" d="M94.985 140.695v-39.961h-.87a2.614 2.614 0 01-2.617-2.606c0-1.44 1.17-2.607 2.618-2.607h.869v-4.35a2.61 2.61 0 012.615-2.6 2.612 2.612 0 012.616 2.6v4.35h.868a2.615 2.615 0 012.619 2.606 2.612 2.612 0 01-2.619 2.607h-.868v39.961h.868a2.615 2.615 0 012.619 2.606 2.611 2.611 0 01-2.619 2.606h-.868v4.35a2.61 2.61 0 01-2.616 2.6 2.611 2.611 0 01-2.615-2.6v-4.35h-.87a2.614 2.614 0 01-2.617-2.606 2.611 2.611 0 012.618-2.606h.869z" clip-rule="evenodd"/>
  <path fill="#fff" fill-rule="evenodd" d="M81.543 108.467l34.73 19.981.434-.75a2.624 2.624 0 013.574-.957 2.602 2.602 0 01.956 3.563l-.434.75 3.78 2.175a2.6 2.6 0 01.952 3.557 2.622 2.622 0 01-3.567.957l-3.781-2.175-.434.75a2.624 2.624 0 01-3.574.956 2.602 2.602 0 01-.956-3.563l.434-.749-34.73-19.981-.434.75a2.624 2.624 0 01-3.574.956 2.6 2.6 0 01-.956-3.562l.435-.75-3.781-2.175a2.6 2.6 0 01-.952-3.557 2.62 2.62 0 013.567-.957l3.781 2.175.434-.75a2.623 2.623 0 013.575-.956 2.6 2.6 0 01.955 3.562l-.434.75z" clip-rule="evenodd"/>
  <path fill="#fff" fill-rule="evenodd" d="M116.273 112.981l-34.73 19.981.434.75a2.604 2.604 0 01-.956 3.562 2.62 2.62 0 01-3.574-.956l-.434-.75-3.78 2.175a2.619 2.619 0 01-3.568-.957 2.602 2.602 0 01.952-3.557l3.78-2.175-.434-.75a2.605 2.605 0 01.956-3.563 2.621 2.621 0 013.574.957l.435.75 34.729-19.981-.434-.75a2.603 2.603 0 01.956-3.562 2.62 2.62 0 013.574.956l.434.75 3.781-2.175a2.619 2.619 0 013.567.957 2.603 2.603 0 01-.952 3.557l-3.78 2.175.434.75a2.603 2.603 0 01-.956 3.562 2.62 2.62 0 01-3.574-.956l-.434-.75z" clip-rule="evenodd"/>
</svg>
