<svg xmlns="http://www.w3.org/2000/svg" width="192" height="192" fill="none" viewBox="0 0 192 192">
  <path fill="#fff" fill-rule="evenodd" d="M155.975 78.079c.017-.5.025-1.003.025-1.508C156 51.955 136.122 32 111.6 32c-19.452 0-35.982 12.557-41.986 30.038A30.969 30.969 0 0055.2 58.502c-17.231 0-31.2 14.023-31.2 31.32 0 11.448 6.118 21.461 15.25 26.925a6.249 6.249 0 01.795-2.347 6.31 6.31 0 018.6-2.303s.115.121 1.338.737a6.316 6.316 0 016.703-.253 6.278 6.278 0 013.131 5.932c.725.513 2.767 1.748 4.242 2.63h1.638c-.003-1.613-.004-4.779.039-5.986a6.284 6.284 0 01-3.636-5.694 6.28 6.28 0 013.606-5.68c.01-1.374-.006-1.507-.006-1.507C65.7 98.808 68.525 96 72 96c3.476 0 6.3 2.814 6.3 6.276 0 0 .016.402-.015 1.504a6.284 6.284 0 013.615 5.683 6.28 6.28 0 01-3.534 5.646c-.04.635-.057 4.262-.063 6.034h1.603a1329.34 1329.34 0 014.28-2.588 6.282 6.282 0 013.128-5.974 6.312 6.312 0 016.678.235c1.222-.61 1.363-.719 1.363-.719a6.308 6.308 0 018.6 2.303 6.275 6.275 0 01-.291 6.743h6.65l.578-2.09 9.638-34.829a3.422 3.422 0 013.299-2.51h23.897c2.358 0 3.981 2.369 3.129 4.568l-5.491 14.653a1 1 0 00.936 1.351H153.448c2.258 0 3.655 2.46 2.498 4.399l-7.583 14.239C159.458 119.379 168 109.818 168 98.254a22.896 22.896 0 00-12.025-20.175z" clip-rule="evenodd"/>
  <path fill="#FFF686" fill-rule="evenodd" d="M125.513 86c-.724 0-1.358.486-1.545 1.185l-8.57 31.943a1.6 1.6 0 001.545 2.015h11.541a1.6 1.6 0 011.589 1.789l-2.966 24.909c-.213 1.788 2.231 2.511 3.025.895l19.592-39.859a1.6 1.6 0 00-1.436-2.306h-7.122a1.6 1.6 0 01-1.498-2.161l6.093-16.248A1.6 1.6 0 00144.263 86h-18.75z" clip-rule="evenodd"/>
  <path fill="#fff" fill-rule="evenodd" d="M69.385 152.695v-39.961h-.87a2.614 2.614 0 01-2.618-2.607 2.611 2.611 0 012.619-2.606h.869v-4.35a2.61 2.61 0 012.615-2.6 2.612 2.612 0 012.615 2.6v4.35h.87a2.614 2.614 0 012.618 2.606c0 1.44-1.17 2.607-2.619 2.607h-.869v39.961h.87a2.614 2.614 0 012.618 2.606 2.611 2.611 0 01-2.619 2.606h-.869v4.35a2.61 2.61 0 01-2.615 2.6 2.612 2.612 0 01-2.615-2.6v-4.35h-.87a2.614 2.614 0 01-2.618-2.606 2.611 2.611 0 012.619-2.606h.869z" clip-rule="evenodd"/>
  <path fill="#fff" fill-rule="evenodd" d="M55.943 120.467l34.73 19.981.434-.75a2.624 2.624 0 013.574-.957c1.251.72 1.68 2.313.956 3.563l-.434.75 3.78 2.175a2.6 2.6 0 01.952 3.557 2.622 2.622 0 01-3.567.957l-3.78-2.175-.435.75a2.624 2.624 0 01-3.574.956 2.602 2.602 0 01-.956-3.563l.434-.749-34.73-19.981-.434.75a2.624 2.624 0 01-3.574.956 2.6 2.6 0 01-.956-3.562l.435-.75-3.781-2.175a2.6 2.6 0 01-.952-3.557 2.62 2.62 0 013.567-.957l3.78 2.175.435-.75a2.624 2.624 0 013.575-.957c1.25.72 1.68 2.313.955 3.563l-.434.75z" clip-rule="evenodd"/>
  <path fill="#fff" fill-rule="evenodd" d="M90.673 124.981l-34.73 19.981.434.749a2.605 2.605 0 01-.956 3.563 2.62 2.62 0 01-3.574-.956l-.434-.75-3.78 2.175a2.619 2.619 0 01-3.568-.957 2.602 2.602 0 01.952-3.557l3.78-2.175-.434-.75a2.605 2.605 0 01.956-3.563 2.621 2.621 0 013.574.957l.434.75 34.73-19.981-.434-.75a2.605 2.605 0 01.956-3.563 2.621 2.621 0 013.574.957l.434.75 3.78-2.175a2.619 2.619 0 013.568.957 2.603 2.603 0 01-.952 3.557l-3.78 2.175.434.75a2.604 2.604 0 01-.956 3.562 2.62 2.62 0 01-3.574-.956l-.434-.75z" clip-rule="evenodd"/>
</svg>
