<svg xmlns="http://www.w3.org/2000/svg" width="192" height="192" fill="none" viewBox="0 0 192 192">
  <path fill="#fff" fill-rule="evenodd" d="M156 76.985c0 .509-.008 1.016-.025 1.522C163.133 82.404 168 90.064 168 98.877c0 11.106-7.731 20.382-18.036 22.602l7.144-13.323c1.186-1.974-.236-4.487-2.539-4.487h-7.402a1 1 0 01-.935-1.354l5.648-14.969c.874-2.24-.779-4.658-3.184-4.658H124.111a3.5 3.5 0 00-3.371 2.56l-9.896 35.521-.339 1.216H55.2c-17.231 0-31.2-14.158-31.2-31.622S37.969 58.74 55.2 58.74c5.2 0 10.103 1.29 14.414 3.57 6.004-17.648 22.534-30.326 41.986-30.326 24.522 0 44.4 20.147 44.4 45z" clip-rule="evenodd"/>
  <path fill="#B4F5F2" fill-rule="evenodd" d="M56.216 133.368a4 4 0 117.608 2.472l-7.042 21.674a4 4 0 11-7.608-2.472l7.042-21.674zm21.146-2.568a4 4 0 00-5.04 2.568l-13.63 41.946a4.001 4.001 0 007.609 2.473l13.63-41.947a4 4 0 00-2.569-5.04zm16.106 0a4 4 0 00-5.04 2.568l-10.336 31.81a4 4 0 107.608 2.472l10.336-31.81a4 4 0 00-2.568-5.04zm16.105 0a4 4 0 00-5.041 2.568l-7.042 21.674a4 4 0 007.608 2.472l7.043-21.674a4 4 0 00-2.568-5.04z" clip-rule="evenodd"/>
  <path fill="#FFF686" fill-rule="evenodd" d="M126.184 87.427c-.724 0-1.358.485-1.546 1.185l-8.408 31.317a1.6 1.6 0 001.545 2.015h11.288a1.6 1.6 0 011.59 1.779l-3.02 26.724c-.2 1.77 2.207 2.493 3.016.906l21.008-41.253a1.6 1.6 0 00-1.425-2.326h-9.228a1.6 1.6 0 01-1.483-2.2l6.45-15.948a1.6 1.6 0 00-1.483-2.2h-18.304z" clip-rule="evenodd"/>
</svg>
