<svg xmlns="http://www.w3.org/2000/svg" width="192" height="192" fill="none" viewBox="0 0 192 192">
  <path fill="#fff" fill-rule="evenodd" d="M144.8 86.4c17.231 0 31.2-13.969 31.2-31.2S162.031 24 144.8 24s-31.2 13.969-31.2 31.2a4 4 0 008 0c0-12.813 10.387-23.2 23.2-23.2 12.813 0 23.2 10.387 23.2 23.2 0 12.813-10.387 23.2-23.2 23.2-.274 0-.542.027-.8.08a4.02 4.02 0 00-.8-.08H20a4 4 0 000 8h123.2c.274 0 .542-.028.8-.08.258.052.526.08.8.08zM16 98.4a4 4 0 004 4H113.617c10.154.009 18.383 8.244 18.383 18.4 0 10.162-8.238 18.4-18.4 18.4a4 4 0 000 8c14.58 0 26.4-11.82 26.4-26.4 0-13.262-9.778-24.24-22.518-26.117A3.997 3.997 0 00116 94.4H20a4 4 0 00-4 4zm4 12a4 4 0 000 8h72.8a4 4 0 000-8H20z" clip-rule="evenodd"/>
</svg>
